<svg width="20" height="20" viewBox="0 0 20 20" fill="none" xmlns="http://www.w3.org/2000/svg">
<path d="M7.67715 6.83115C7.6279 6.5877 7.77471 6.39257 7.141 6.34332C6.5073 6.29408 6.45805 6.44089 5.92191 6.09987C5.38577 5.75886 4.80038 5.75886 4.75206 5.51449C4.70374 5.27011 4.99551 5.31936 4.99551 4.9291C4.99551 4.53884 4.49746 4.6364 4.74648 4.19783C4.99551 3.75925 4.60525 3.71093 5.19064 3.26864C5.77603 2.82634 6.13934 2.97594 6.17651 2.63493C6.21367 2.29392 6.01854 2.34224 6.4088 1.95198C6.79906 1.56172 6.60393 1.5134 7.04251 1.07482C7.48109 0.636246 8.01723 0.0991747 8.11479 0.538681C8.21236 0.978187 8.02187 1.36752 8.11479 1.66021C8.20771 1.95291 8.02187 2.09879 8.60262 2.39148C9.18336 2.68418 9.13876 2.4844 9.28557 3.07444C9.43238 3.66447 9.13876 3.65983 9.57826 4.00363C10.0178 4.34742 10.0661 4.68658 10.6004 4.4422C11.1347 4.19783 10.9414 3.61337 11.6225 4.00363C12.3036 4.39388 12.5972 4.83246 13.2802 5.02573C13.6916 5.10055 14.0986 5.19826 14.4992 5.31843C14.9871 5.51356 15.133 5.36674 15.2305 5.70776C15.2919 5.82869 15.3239 5.9624 15.3239 6.09802C15.3239 6.23363 15.2919 6.36734 15.2305 6.48828C15.1693 6.92901 14.9428 7.32997 14.5968 7.60981C14.1582 7.95082 14.1582 8.04931 13.768 8.39032C13.2818 8.94696 12.9459 9.61866 12.7923 10.3416C12.8468 10.7833 13.0149 11.2033 13.2802 11.5607C13.5236 11.951 14.4992 12.2437 14.5476 12.5828C14.5602 12.7734 14.516 12.9634 14.4206 13.1288C14.3252 13.2943 14.1827 13.4276 14.0114 13.512C13.5854 13.7906 13.2068 14.1357 12.8899 14.5341C12.8416 14.68 13.3285 15.021 13.3285 15.021C12.5972 15.5088 12.4513 15.362 12.3064 15.6547C12.1777 16.1167 12.0962 16.5905 12.0629 17.0689L12.258 17.6543C12.5293 17.7408 12.7908 17.8551 13.0386 17.9953C13.2337 18.1412 13.4288 18.5315 13.2337 18.6783C13.0386 18.8251 13.0878 18.971 12.6483 19.0676C12.2088 19.1643 11.917 19.4579 11.8195 19.0676C11.7219 18.6774 11.6243 18.3364 11.3316 18.4339C11.0389 18.5315 11.1858 18.5807 10.9423 18.8242C10.6989 19.0676 10.6979 19.4579 10.3569 19.5071C10.0159 19.5564 9.77154 19.7506 9.57734 19.5071C9.38314 19.2637 9.33389 18.9217 9.08951 18.8734C8.84513 18.8251 7.96798 18.7275 7.96798 18.7275C7.97129 18.4291 8.0205 18.1329 8.11386 17.8495C8.16311 17.5085 8.40656 17.3626 7.91873 17.5568C7.43091 17.751 7.43184 18.0446 7.13914 17.8495C6.84645 17.6543 5.96837 17.8987 6.70057 17.3626C7.43277 16.8264 7.23671 17.1674 7.43184 16.8255C7.62697 16.4836 7.91873 16.3386 7.67529 16.0942C7.52169 15.8995 7.3199 15.7484 7.0899 15.6556C6.69964 15.4605 6.74889 15.6557 6.55283 15.1688C6.35677 14.6819 6.26013 15.3146 6.3577 14.6809C6.45526 14.0472 6.3577 13.8038 7.04065 13.8521C7.7236 13.9004 7.96984 13.7053 8.01537 14.1448C8.0609 14.5843 7.9178 14.8761 8.01537 15.074C8.11293 15.2719 7.9178 15.1715 8.35638 15.5126C8.79496 15.8536 8.79496 15.9511 9.28557 15.9019C9.77618 15.8526 9.88768 15.9994 10.001 15.7068C10.1144 15.4141 9.93693 15.0145 10.001 14.7776C10.0652 14.5406 10.5214 14.6354 10.001 14.0509C9.4807 13.4665 9.67583 13.4172 8.99288 13.0288C8.30992 12.6404 8.2616 12.8337 7.87135 12.2976C7.48109 11.7614 6.99419 11.7605 7.43277 11.4195C7.87135 11.0785 7.87135 11.517 7.87135 11.0785C7.87135 10.6399 8.06647 11.3219 7.87135 10.6399C7.67622 9.95786 7.6279 10.2989 7.77843 9.66517C7.92896 9.03146 8.16776 8.98222 7.87135 8.64306C7.57493 8.30391 7.48109 8.49718 7.53033 8.05767C7.53862 7.91038 7.55506 7.76365 7.57958 7.61817L7.67715 6.83115Z" fill="#22394E"/>
</svg>
