<svg width="20" height="20" viewBox="0 0 20 20" fill="none" xmlns="http://www.w3.org/2000/svg">
<g clip-path="url(#clip0_1266_7892)">
<path d="M5.80153 0.593899C5.38438 0.843738 4.75921 1.42821 4.21883 1.80353C3.83125 2.07056 3.38976 2.24924 2.92554 2.32695C2.63388 2.388 2.38291 1.80353 1.79505 2.13816C1.20719 2.47278 1.0851 2.51348 1.0851 2.88881C1.0851 3.26413 1.00144 2.72149 1.0851 3.63946C1.16875 4.55742 1.38694 4.76995 1.04779 5.09893C0.70864 5.4279 0.875954 5.72522 0.333315 5.84958C-0.209323 5.97393 -0.083838 5.43243 -0.500991 6.2249C-0.824758 6.67006 -0.959648 7.22506 -0.876316 7.76916C-0.792659 8.18632 -0.668305 9.31229 -0.291849 9.56326C0.154225 10.0188 0.508142 10.5562 0.750469 11.146C0.834126 11.3969 1.00031 12.1476 1.00031 12.1476C0.897093 12.4197 0.869708 12.7148 0.921076 13.0013C0.972444 13.2878 1.10064 13.555 1.29198 13.7744C1.95897 14.4832 1.75661 14.9049 2.44282 15.0258C3.12903 15.1468 2.41908 15.1513 3.41957 15.6103C3.94036 15.806 4.43182 16.0722 4.88017 16.4016C5.51582 17.0242 6.19922 17.5961 6.92411 18.1121C7.82137 18.6496 8.79048 19.0569 9.80236 19.3217C10.9702 19.5308 11.1375 19.948 12.7224 19.8225C13.7143 19.8555 14.7069 19.7858 15.6843 19.6145C16.7685 19.3228 18.6417 18.9475 18.6417 18.9475C18.7601 18.9603 18.8798 18.9464 18.9921 18.9069C19.1045 18.8675 19.2066 18.8034 19.291 18.7195C19.3754 18.6355 19.44 18.5337 19.48 18.4216C19.52 18.3095 19.5345 18.1898 19.5224 18.0714V16.2355C19.7422 15.6965 19.9099 15.1378 20.0232 14.5668C20.4403 12.9841 20.6495 13.1481 20.6076 12.3138C20.5658 11.4795 21.2859 11.1041 20.6076 10.5197C20.2102 10.1466 19.7904 9.79817 19.3505 9.47621C18.7791 9.1701 18.2699 8.75984 17.8492 8.26658C17.3484 7.59846 17.3903 7.61428 16.9313 6.9179C16.4723 6.22151 16.3886 6.63867 16.2224 5.51269C16.1136 4.88634 15.9459 4.27164 15.7216 3.67676C15.5962 3.13413 15.9297 2.9702 15.0953 2.32017C14.261 1.67013 14.3865 1.58874 13.1735 1.42142C11.9605 1.25411 11.4212 1.21341 10.1698 1.08227C9.381 1.10295 8.59362 1.00462 7.83416 0.790605C7.37518 0.540765 7.29152 -0.08553 6.54087 0.247967L5.80153 0.593899Z" fill="#22394E"/>
</g>
<defs>
<clipPath id="clip0_1266_7892">
<rect width="20" height="20" fill="white"/>
</clipPath>
</defs>
</svg>
