<svg width="20" height="20" viewBox="0 0 20 20" fill="none" xmlns="http://www.w3.org/2000/svg">
<path d="M8.56843 1.66653C8.1955 1.6859 7.82272 1.62558 7.47493 1.48958C6.80391 1.24007 6.98385 1.06312 6.38142 0.915991C5.779 0.768865 5.6448 0.489524 5.30084 0.753953C4.95689 1.01838 4.98969 0.974642 4.94098 1.31263C4.88372 1.679 4.73117 2.02387 4.49861 2.31269C4.24254 2.61568 3.95119 2.887 3.63077 3.12089C3.27525 3.33643 2.98626 3.64606 2.79573 4.01558C2.55019 4.45695 2.23903 4.54443 2.28775 5.23533C2.33646 5.92622 2.51738 6.3676 2.51738 6.67577C2.47201 6.94452 2.48319 7.21978 2.55019 7.48397C2.66451 7.85178 2.89414 8.61624 2.95975 8.86576C3.13536 9.33871 3.36027 9.79187 3.63077 10.2177C3.83012 10.5114 4.04898 10.7914 4.28587 11.0557C4.48469 11.2178 4.92408 11.6582 4.94098 11.851C4.95788 12.0439 5.0722 12.5121 4.92408 12.689C4.74307 12.9464 4.53439 13.183 4.30178 13.3949C3.97472 13.6742 3.76099 13.7776 3.77789 14.042C3.82304 14.378 3.83403 14.7177 3.8107 15.056C3.76199 15.4089 3.89221 15.7906 3.56516 16.2171C3.2381 16.6435 3.08998 17.2609 2.71322 17.5094C2.33646 17.7579 2.33646 17.6714 2.0422 17.921C1.74795 18.1705 1.404 17.7887 1.53422 18.1854C1.66445 18.582 1.71415 18.6268 2.0094 18.759C2.41003 18.9712 2.82608 19.153 3.254 19.3028C3.48364 19.3326 3.35341 19.4022 3.77789 19.3028C4.0219 19.2634 4.25895 19.1891 4.48171 19.0821C4.85847 18.92 4.85847 19.0672 5.34955 18.6844C5.84064 18.3017 5.84064 17.9935 6.2174 18.1874C6.59416 18.3812 6.69258 18.7162 7.01963 18.7162C7.31401 18.771 7.61819 18.7299 7.88748 18.5989C8.23143 18.4081 8.47697 18.1874 8.6738 18.2609C8.87064 18.3345 9.36172 18.4518 9.32891 18.6138C9.29611 18.7759 9.05057 18.9966 9.21459 19.0115C9.49763 19.0407 9.78265 19.0457 10.0665 19.0264C10.4105 18.9966 10.8201 19.3057 11.1799 19.085C11.4969 18.9129 11.7937 18.7058 12.0647 18.4677C12.1641 18.3355 12.6373 18.0562 12.8341 17.8206C13.0578 17.5422 13.2348 17.2293 13.358 16.8941C13.4892 16.5412 14.4226 15.5421 14.4515 15.2041C14.4468 14.8842 14.5148 14.5674 14.6503 14.2776C14.8491 13.8511 14.6503 13.9098 15.0758 13.5281C15.4333 13.0868 15.7652 12.6255 16.0699 12.1463C16.2995 11.9256 16.3482 11.5289 16.7409 11.1611C17.1047 10.8157 17.4236 10.4259 17.6902 10.001C17.9014 9.73751 18.1434 9.50022 18.411 9.29421C18.4741 9.11503 18.5018 8.92528 18.4925 8.73553C18.4597 8.49993 18.3284 8.4711 18.2141 8.17685C18.0998 7.8826 18.2469 7.89751 18.0342 7.50087C17.8215 7.10423 17.8543 7.42731 17.723 7.00382C17.5918 6.58034 17.5918 6.34275 17.4606 6.26919C17.3294 6.19562 17.3463 6.22545 16.9367 6.12206C16.5271 6.01867 16.4784 6.0485 16.2657 5.90137C16.053 5.75425 15.7746 5.60314 15.6275 5.47491C15.5144 5.37125 15.4103 5.25818 15.3163 5.13691C15.1364 4.93114 15.0539 4.81383 14.9724 4.78401C14.8558 4.74927 14.7332 4.73911 14.6125 4.75419L14.3014 4.78401C14.1678 4.7161 14.0462 4.62677 13.9415 4.51958C13.6793 4.27955 13.4003 4.05862 13.1065 3.85851C12.6757 3.55204 12.2653 3.21799 11.8778 2.85845C11.7137 2.65267 11.7784 2.32959 11.337 2.25603C10.8956 2.18247 10.9771 2.29977 10.666 2.18247C10.4375 2.08856 10.2151 1.98066 9.99993 1.85939C9.6669 1.69735 9.80111 1.6387 9.51978 1.6387C9.3269 1.64354 9.13502 1.66819 8.94718 1.71226C8.81966 1.71056 8.69269 1.69523 8.56843 1.66653Z" fill="#22394E"/>
</svg>
