<svg width="20" height="20" viewBox="0 0 20 20" fill="none" xmlns="http://www.w3.org/2000/svg">
<g clip-path="url(#clip0_1266_7886)">
<path d="M6.10336 0.0799164C5.3307 -0.279564 4.49128 -0.473124 3.63922 -0.488281C3.30828 -0.476169 2.98299 -0.398704 2.68211 -0.260347C2.38122 -0.12199 2.11068 0.0745243 1.88607 0.317879C1.36546 0.981262 1.31787 0.838484 1.27028 1.69127C1.18072 2.05155 1.17694 2.42783 1.25926 2.78984C1.34159 3.15186 1.5077 3.4895 1.74426 3.77563C2.36005 4.4866 3.07103 4.8654 3.21283 5.24517C3.33473 5.74078 3.38252 6.25172 3.35464 6.76134C3.35464 7.23532 3.22449 8.13472 3.66836 8.6563C4.11224 9.17788 5.439 10.0307 6.10239 10.696C6.76577 11.3613 7.00276 11.7382 7.76036 11.7858C8.51795 11.8334 8.28193 12.1646 8.80254 11.7858C9.32314 11.407 9.56013 10.6484 9.89231 11.0748C10.0367 11.2125 10.143 11.3852 10.2011 11.5762C10.2591 11.7671 10.2668 11.9698 10.2235 12.1646C10.2065 12.3413 10.2319 12.5196 10.2978 12.6845C10.3637 12.8494 10.4681 12.9962 10.6023 13.1125C10.7451 13.2097 11.2657 13.3495 11.0763 13.6807C10.8869 14.0119 10.7451 14.5811 10.3177 14.3917C9.89037 14.2023 9.79713 14.3917 9.55916 14.0595C9.3212 13.7273 9.55916 13.2067 8.99097 13.3961C8.42277 13.5855 8.56457 13.6331 8.043 14.0119C7.52142 14.3907 7.00082 14.5335 6.95322 14.9599C6.90563 15.3863 6.8561 16.2867 7.33202 16.6655C7.80795 17.0443 7.80601 17.9446 8.27999 17.8494C8.75397 17.7543 8.51698 17.9913 9.03759 17.5649C9.2336 17.3653 9.47088 17.2111 9.73278 17.113C9.99469 17.0148 10.2749 16.9751 10.5538 16.9967C11.0208 17.0958 11.4995 17.1285 11.9757 17.0938C12.5764 17.0787 13.1774 17.0946 13.7765 17.1414C14.3922 17.1414 14.1183 16.6684 14.7293 17.0443C15.3402 17.4201 15.6238 17.4231 15.9084 17.2812C16.193 17.1394 16.8564 16.9025 16.5718 17.3288C16.2872 17.7552 16.0502 17.6795 15.9084 18.0962C15.7666 18.5128 15.1032 19.2238 15.719 19.6502C16.3348 20.0766 16.5242 20.9294 17.0924 20.2184C17.4108 19.8277 17.7029 19.4163 17.9665 18.9868C18.4192 18.3234 18.7037 18.3234 18.6562 17.6134C18.6086 16.9034 18.998 17.3288 18.661 15.768C18.5289 14.8603 18.2956 13.9703 17.9656 13.1145C17.5188 11.9305 17.4712 11.5983 16.903 11.1719C16.3348 10.7455 15.5762 10.1773 15.6238 9.79755C15.6714 9.41778 16.192 8.99236 15.6238 8.80199C15.1567 8.56156 14.6195 8.49445 14.1077 8.61259C13.6813 8.80199 13.6337 9.37019 13.3491 8.89718C13.0645 8.42417 12.7809 8.28139 13.3491 8.0444C13.7413 7.87415 14.1213 7.67716 14.4865 7.45483C14.5113 7.32524 14.5067 7.19174 14.4731 7.06416C14.4395 6.93657 14.3777 6.81815 14.2922 6.71763C14.0076 6.43304 13.5812 6.14943 13.7716 5.91147C13.962 5.67351 14.3029 5.72207 14.7244 5.62688C15.146 5.5317 15.1926 5.58026 15.4772 5.3423C15.7617 5.10434 16.4251 4.91591 16.4251 4.6323C16.4251 4.34868 16.4251 4.01651 16.1881 3.92132C15.6916 3.85071 15.1853 3.91791 14.7244 4.11558C14.3252 4.33255 13.9118 4.52238 13.487 4.68377C13.1082 4.82655 13.1082 5.20535 12.6809 5.06257C12.3204 4.96216 12.0141 4.72383 11.8281 4.39919C11.5666 4.08587 11.3289 3.75341 11.1171 3.4046C10.9277 3.0734 10.1837 2.45663 10.0108 2.17302C9.83792 1.88941 9.31634 1.74663 8.74815 1.36686C8.27828 1.07792 7.78737 0.824679 7.27957 0.609263C7.09794 0.506307 6.10336 0.0799164 6.10336 0.0799164Z" fill="#22394E"/>
</g>
<defs>
<clipPath id="clip0_1266_7886">
<rect width="20" height="20" fill="white"/>
</clipPath>
</defs>
</svg>
