<svg width="20" height="20" viewBox="0 0 20 20" fill="none" xmlns="http://www.w3.org/2000/svg">
<g clip-path="url(#clip0_1266_7880)">
<path d="M10.1278 0.496343L9.45723 2.50323L7.64897 3.37933L7.44248 4.36262H5.63323L5.37463 3.58976L4.44444 3.49143L5.27139 5.96439L3.15241 6.32427L2.16913 5.55141L0 6.47078L0.774828 6.98602L0.25762 7.91326L2.78958 8.22201L4.18486 9.51011L3.87512 10.283L5.84169 11.5701L5.32252 16.6714L4.59882 18.0116L5.0118 18.578L7.7001 19.4541L8.68338 18.8356L10.4395 19.9703H12.1445V18.7343L13.591 17.6055L17.5182 18.4816L19.4307 16.2141L18.3491 15.8021L17.884 13.9477L18.6077 13.6389L17.8328 12.6556L18.35 12.3469L18.0403 11.3636L17.1091 11.2141L18.2458 8.94767L19.4346 8.58779V6.98602L20.0039 5.23381L18.1436 4.71857L17.0619 3.99684H16.0206L15.3481 3.42948L14.9872 2.7579H14.0039L13.9528 2.24266L12.5575 1.11286H11.9892L11.5241 0.03125L10.1278 0.496343Z" fill="#F8FAFC"/>
</g>
<defs>
<clipPath id="clip0_1266_7880">
<rect width="20" height="20" fill="white"/>
</clipPath>
</defs>
</svg>
